# xmcd CD database file
#
# Track frame offsets:
#	150
#	22477
#	50267
#	71272
#	87766
#	119687
#	133010
#	156736
#	182410
#	210029
#	235665
#	261784
#
# Disc length: 3809 seconds
#
# Revision: 2
# Processed by: cddbd v1.5.2PL0 Copyright (c) Steve Scherf et al.
# Submitted via: CDex 1.70beta2
#
DISCID=a20edf0c
DTITLE=Elvin Bishop - Booty Bumpin'
DYEAR=2007
DGENRE=Blues
TTITLE0=Stomp
TTITLE1=Stealin' Watermelons
TTITLE2=Keep A Dollar In Your Pocket
TTITLE3=What The Hell Is Going On
TTITLE4=I Feel Alright Again
TTITLE5=Booty Bumpin'
TTITLE6=Half Way Out The Door
TTITLE7=My Dog
TTITLE8=Belly Rubbin'
TTITLE9=I'll Be Glad
TTITLE10=Blue Flame
TTITLE11=I'm Gone
EXTD=YEAR: 2007
EXTT0=
EXTT1=
EXTT2=
EXTT3=
EXTT4=
EXTT5=
EXTT6=
EXTT7=
EXTT8=
EXTT9=
EXTT10=
EXTT11=
PLAYORDER=
